<svg id="visual" viewBox="0 0 900 600" width="900" height="600" xmlns="http://www.w3.org/2000/svg" xmlns:xlink="http://www.w3.org/1999/xlink" version="1.1"><g transform="translate(437.4821925615071 343.5570989534424)"><path d="M164.9 -206.9C216.3 -153.5 262.3 -103.9 261 -54.4C259.6 -5 211 44.4 176.4 99.5C141.8 154.6 121.2 215.4 82.2 232.5C43.2 249.6 -14.1 223 -76.7 203.4C-139.2 183.8 -206.8 171.1 -227.9 132.6C-249 94 -223.5 29.6 -211.8 -37.5C-200.1 -104.5 -202.3 -174 -169.3 -230.7C-136.3 -287.4 -68.1 -331.2 -5.7 -324.4C56.8 -317.7 113.6 -260.3 164.9 -206.9" fill="#fc663f"></path></g></svg>