<svg id="visual" viewBox="0 0 900 600" width="900" height="600" xmlns="http://www.w3.org/2000/svg" xmlns:xlink="http://www.w3.org/1999/xlink" version="1.1"><g transform="translate(480.2044102406543 294.18039650811323)"><path d="M200.4 -247.2C240.1 -205.5 239.2 -123.8 229.4 -58.4C219.5 7 200.7 56 177.3 107.9C154 159.9 126.1 214.8 75.2 253.7C24.4 292.6 -49.4 315.4 -92.8 286.1C-136.2 256.8 -149.3 175.3 -186.4 108.7C-223.5 42.2 -284.6 -9.4 -294.1 -68.7C-303.7 -128 -261.8 -195 -204.2 -233.5C-146.6 -272 -73.3 -282 3.5 -286.2C80.3 -290.4 160.7 -288.8 200.4 -247.2" fill="#ff7a1a"></path></g></svg>